<?xml version="1.0" encoding="utf-8"?>
<!-- Generator: Adobe Illustrator 18.0.0, SVG Export Plug-In . SVG Version: 6.00 Build 0)  -->
<!DOCTYPE svg PUBLIC "-//W3C//DTD SVG 1.1//EN" "http://www.w3.org/Graphics/SVG/1.1/DTD/svg11.dtd">
<svg version="1.1" id="Layer_1" xmlns="http://www.w3.org/2000/svg" xmlns:xlink="http://www.w3.org/1999/xlink" x="0px" y="0px"
	 viewBox="0 0 640 250" enable-background="new 0 0 640 250" xml:space="preserve">
<path fill="none" stroke="#000000" stroke-width="0.25" stroke-miterlimit="10" d="M638.7,248.7c0-2.9,0-5.9,0-8.8
	c-7.6,0-15.2,0-23.2,0c1.1-2.5,2.1-4.6,3-6.7c0.3-0.8,0.4-1.6,0.6-2.3c-1.3-1.3-2.6-1.3-3.9-1.3c-4.1-0.1-8,0.9-11.9,1.8
	c-6.6,1.5-13.1,3.3-19.7,4.9c-0.5,0.1-1.1,0.2-1.8,0.3c0.3-4.2,0.6-8.2,0.8-11.5c-1.1-2.3-2.3-3.9-2.8-5.7c-0.5-1.8-0.4-3.8-0.2-5.6
	c0.2-1.9,0.8-3.7,1.3-5.7c-2.4,1-4.2,2.9-6.6,4.5c0-2.5,0-4.6,0-7.2c-2.9,2.5-5.4,4.7-8.4,7.3c0.1-2.1,0.2-3.7,0.3-5.7
	c-2.6,2.3-4.9,4.4-7.6,6.9c0-2.7,0-4.9,0-7.6c-2.7,2.4-5.1,4.4-7.8,6.8c0-2.3,0-4,0-6.2c-0.7,0.5-1.2,0.8-1.6,1.1
	c-2.4,2.1-5,3.9-7.8,5.4c-3.3,1.7-6.5,1.7-9.9,0.1c-3-1.5-5.8-3.4-8.4-5.5c-0.6-0.5-1.1-0.9-2-1.6c0,2.3,0,4.3,0,6.9
	c-2.6-2.2-4.7-4-7.2-6.1c0,2.1,0,3.8,0,6c-2.7-2.3-5.1-4.3-7.8-6.6c0.1,2.5,0.2,4.4,0.3,6.9c-2.7-2.5-5.1-4.7-7.7-7.1
	c0.5,2.5,1,4.6,1.5,7.1c-3.1-2.1-5.8-4-8.9-6.2c0.6,1.6,1.1,2.8,1.5,3.9c1.2,3.1,2.1,6.2,1.6,9.5c-0.3,2,0,4.1-0.2,6.1
	c-0.4,3.4-2.4,4.8-6.2,4.4c0-9.8,0-19.6,0-29.7c-4.2,0-8.1,0-12.4,0c0-4.1,0-7.9,0-11.9c-3.3,0-6.4,0-9.6,0c-0.6-2.1-0.2-4-0.3-6
	c-0.1-2,0-4.1-0.1-6.1c0-1.9,0-3.9,0-6c-7.6,0-15.1,0-22.9,0c-0.1,9.2,0,18.4,0,27.7c0,9.2,0,18.5,0,27.9c-1.7,0-3.3,0-5.2,0
	c-0.1-1.8-0.2-3.5-0.3-5.5c-2.4,0-4.7,0-7.2,0c-0.4-4.2,0-8.2-0.3-12.3c-0.8-0.1-1.4-0.2-2.2-0.4c-0.1-0.9-0.1-1.7-0.2-2.6
	c-0.8-0.1-1.5-0.1-2.5-0.2c0-5.5-0.1-10.9-0.1-16.5c-3,0-5.6,0-8.4,0l-0.4-5.8c-1.1-0.1-2.3-0.2-3.5-0.3c-0.1-0.9-0.2-1.8-0.3-2.9
	c-0.9,0-1.7,0-2.7,0c-0.1,0.9-0.2,1.7-0.3,2.9c-2.1,0-4.2,0-6.3,0l-0.5,6c-4.3,0-8.7,0-13.3,0c0,9.5,0,18.7,0,28
	c-2.5,0.3-4.7,0.4-7.2,0c-0.1-1-0.1-2-0.2-2.9c-0.6-18.5-0.6-37-0.5-55.5c0-0.6,0-1.1,0-2c-3.6-0.7-7.1-1.4-10.8-2.2
	c0-1.3,0-2.4,0-3.6c0.5-0.6,1.1-1.3,1.5-1.8c1.3-0.1,2.1-0.1,3.2-0.2c0.1-0.6,0.2-1.2,0.4-2c0.5-0.2,1.1-0.3,1.7-0.5
	c0.1-0.9,0.1-1.8,0.2-2.8c0.7-0.4,1.3-0.8,2.1-1.3c0-0.6,0-1.3,0-1.9c-2.5-1.8-5.3-2-8.4-2.5c0-1.2,0-2.4,0-3.8c-2.1,0-4.1,0-6.2,0
	c0.1-2.1-0.9-4,0.3-5.8c-1.3-1.7-1.1-3.6-0.5-5.3c-0.3-1.1-0.8-3-0.2-4.2l-0.9-3.5c0,0-0.4,2.1-0.6,3.6c0.6,1,0.4,2.5-0.5,3.8
	c0.7,1.8,0.7,3.6-0.1,5.5c0.9,1.7,0.3,3.6,0.3,5.8c-1.7,0.1-3.3,0.2-5,0.3c-0.1,1.2-0.1,2.3-0.2,3.6c-2.8,0.6-5.7,0.7-8.2,2.4
	c0,0.7,0,1.4,0,2.1c0.6,0.4,1.2,0.8,1.9,1.2c0,1,0,1.9,0,2.8c0.6,0.2,1.1,0.3,1.8,0.5c0.1,0.6,0.3,1.3,0.4,2.1c1,0.1,2,0.1,3,0.2
	c0.6,0.5,1.2,1.1,1.9,1.7c0,1.2,0,2.3,0,3.8c-4,0.2-7.9,0.4-12,0.6c0,21.1,0,42.1,0,63.4c-1.9-0.4-3.5-0.8-5.2-1.1
	c-0.4-1.1-0.7-2.2-1.1-3.4c-2.3-0.4-4.5,0.1-7,0.1c-0.7-5.9-1.1-11.8-1.6-17.7c-0.6-0.6-1.3-1.1-2.1-1.8c-0.2,0-3.7,0-4.4,0
	c-0.2-0.6-0.4-1.2-0.5-1.8c-2.9,0-5.7,0-8.6,0c-0.2,1.1-0.3,2.1-0.5,3c-0.2,0-0.3,0-0.5,0c-0.3-0.7-0.5-1.4-0.9-2.2
	c-1.6,0-3.3,0-5.2,0c-0.2-3.9-0.5-7.6-0.7-11.3c-0.1,0-0.2,0-0.3,0c-0.3,3.6-0.5,7.3-0.8,11.1c-0.6,0.1-1.2,0.2-2.1,0.3
	c-0.2-4.1-0.6-12.2-0.6-12.2l-1.2,0l-1.2,14.8c0,0-0.2,1.3-0.2,1.9c0,3,0,6,0,9.3c-1.2,0.1-2.2,0.2-3.4,0.3
	c-0.1,1.6-0.1,3.2-0.2,4.9c-2.3,0-4.4,0-6.7,0c-0.1-0.6-0.2-1.2-0.2-1.7c0-0.7,0-1.5,0-2.2c0-17,0-34,0-51.1
	c0-5.9-0.2-11.7-0.2-17.7c-3.3-0.7-6.6,0.2-10-0.4c-0.1-1.3-0.2-2.5-0.3-4.1c-1.9-1.3-2.4-6-2.4-6s-0.2,4.1-1.5,5.7
	c-1.6,0-3.2,0-5,0c-0.1,1.2-0.1,2.3-0.2,3.5c-1.1,0-2,0-3.2,0c-0.1-2.4,0-14.6,0-14.6s-0.4,0-0.7,0.1c0,4.9,0,9.6,0,14.5
	c-2.6,0-8,0-8,0l-0.3,2.1c0,16.9,0,33.9,0,50.8c0,3.3,0,6.5,0,9.9c-1.5,0-4.1,0-4.1,0s-0.3-1.7-0.4-2.5c0-16.6,0-33.2,0-49.9
	c0-0.9,0-1.8,0-2.8c-2.9,0-5.4,0-8.3,0c0-1.9,0-3.6,0-5.5c-2.8,0-5.4,0-8.1,0c-0.1-1.5-0.2-2.8-0.2-4.2c-1.7,0-3.4,0-5.3,0
	c-0.1,1.7-0.2,3.2-0.3,5.1c-4.4,0-8.6,0-13.1,0c-0.1,4.1,0,7.9,0,11.7c0,3.7,0,7.5,0,11.4c-2,0-3.8,0-5.7,0
	c-0.6-1.5-0.2-3.1-0.3-4.7c-0.1-1.5,0-3.1,0-4.8c-0.5-0.1-0.8-0.1-1.4-0.3c0,3.3,0,6.5,0,9.8c-3.8,0-7.4,0-10.9,0
	c-1.5,1.4-2.9,2.7-4.5,4.1c0,3.8,0,7.7,0,11.7c-1.3,0-2.4,0-3.8,0c0-9.9,0-19.8,0-29.9c-3.5-0.4-6.7,0-10.2-0.3c0-1.6,0-3.2,0-5.1
	c-2.1,0-4-0.1-5.8-0.1c-1.9,0-3.8,0-5.7,0c-0.7,1.8-0.1,3.6-0.5,5.6c-3,0-6.1,0-9.4,0c-0.4,6.7,0,13.1-0.1,19.5
	c-0.1,6.5,0,12.9,0,19.4c0,6.5,0,12.9,0,19.6c-1.2,0-2.2,0-3.5,0c-0.1-3.9,0-7.9-0.1-12.1c-1.3-0.1-2.5-0.2-3.9-0.3
	c-0.2-6,0-11.9-0.2-18c-1.5,0-2.8,0-4.2,0c-0.7-3.1,0.2-6.1-0.4-9.3c-2.8-0.1-5.6-0.1-8.6-0.2c-0.6-5.2-3.5-8.3-8.4-9.5
	c-0.5-0.8,0.1-2.3-1.3-2.6c-1.3,0.5-0.8,1.7-1.3,2.6c-5.3,0.9-8.2,4.2-9,9.5c-1.2,0.1-2.1,0.2-3.3,0.3c0,2.1-0.1,4.1-0.1,6.3
	c-1.8,0-3.4,0-5.3,0c0,10.7,0,21.1,0,31.8c-2.3,0.1-4.4,0.1-6.7,0.2c0,2.8,0,5.4,0,8.2c-1.7,0-3.1,0-4.8,0c0-14.2,0-28.2,0-42.4
	c-2.7,0-5.1,0-7.7,0c0-2.4,0-4.5,0-6.9c-2.3,0-4.5,0-7,0c-0.2-4.7,0.1-9.2-0.1-14c-0.5,0-0.9,0.1-1.3,0.1c0,4.5,0,8.9,0,13.6
	c-2.9,0.2-5.9,0-9.1,0.1c0,2.3,0,4.5,0,6.9c-2.1,0-4,0-6.2,0c0,16.1,0,31.9,0,48.1c-0.9-0.5-1.4-0.7-1.8-1c0-6.1,0-12.1,0-18
	c-1.8-0.5-17.5-0.7-22.2-0.3c-0.6,1.9-0.2,4-0.3,6c-0.1,2.1,0,4.3,0,6.4c0,2,0,4.1,0,6.5c-1.9-0.9-3.5-1.6-5.3-2.3
	c-2.9,1.1-5.9,2.1-9,3.3c-1.9-1.3-3.8-2.5-5.9-3.9c-2.3,1.3-4.6,2.7-6.9,4c-1,0.6-2,1.1-3.4,0.1c0-3.7,0-7.5,0-11.4
	c0-3.8,0.1-7.7-0.1-11.8c-4.9,0-9.4,0-14,0c0,16,0,48.1,0,48.1"/>
</svg>
