<?xml version="1.0" encoding="utf-8"?>
<!-- Generator: Adobe Illustrator 18.0.0, SVG Export Plug-In . SVG Version: 6.00 Build 0)  -->
<!DOCTYPE svg PUBLIC "-//W3C//DTD SVG 1.1//EN" "http://www.w3.org/Graphics/SVG/1.1/DTD/svg11.dtd">
<svg version="1.1" id="Layer_1" xmlns="http://www.w3.org/2000/svg" xmlns:xlink="http://www.w3.org/1999/xlink" x="0px" y="0px"
	 viewBox="0 0 2560 1000" enable-background="new 0 0 2560 1000" xml:space="preserve">
<path fill="none" stroke="#000000" stroke-miterlimit="10" d="M2560,1000c0-11.8,0-23.6,0-35.4c-30.5,0-60.9,0-92.9,0
	c4.4-9.9,8.4-18.3,12.1-26.9c1.3-3.1,1.8-6.6,2.5-9.3c-5-5.1-10.3-5-15.6-5.2c-16.2-0.4-31.9,3.4-47.5,7.1
	c-26.5,6.2-52.7,13.1-79.1,19.7c-2.1,0.5-4.3,0.7-7.4,1.2c1.2-16.8,2.4-32.7,3.3-45.9c-4.6-9.1-9.3-15.7-11.2-23
	c-1.8-7.1-1.5-15.1-0.8-22.5c0.8-7.5,3.2-14.9,5-22.9c-9.5,3.9-16.7,11.6-26.4,18.1c0-9.9,0-18.4,0-28.9
	c-11.6,10.1-21.7,19-33.5,29.4c0.5-8.5,0.8-14.8,1.3-22.9c-10.5,9.4-19.8,17.8-30.7,27.5c0-10.8,0-19.5,0-30.3
	c-10.9,9.6-20.3,17.8-31.1,27.4c0-9.1,0-16.2,0-24.7c-2.9,2.1-4.7,3.1-6.3,4.5c-9.8,8.3-20,15.8-31.4,21.8
	c-13.3,6.9-26.1,7-39.5,0.4c-12.1-6-23.2-13.6-33.7-22c-2.3-1.8-4.6-3.6-8.1-6.4c0,9.3,0,17.3,0,27.5c-10.3-8.7-18.9-16-28.9-24.4
	c0,8.6,0,15.3,0,24c-10.9-9.1-20.3-17-31.4-26.4c0.5,9.9,0.9,17.7,1.3,27.7c-11-10.1-20.5-18.8-31.1-28.5c2.1,9.9,4,18.4,6.2,28.4
	c-12.4-8.6-23.4-16.2-35.9-24.8c2.4,6.3,4.2,11,6,15.8c4.6,12.3,8.3,24.7,6.4,38.3c-1.1,8.1,0.1,16.4-1,24.5
	c-1.7,13.7-9.6,19.3-24.8,17.8c0-39.2,0-78.4,0-118.9c-16.7,0-32.6,0-49.5,0c0-16.4,0-31.6,0-47.5c-13.4,0-25.7,0-38.4,0
	c-2.3-8.3-1-16.1-1.2-23.9c-0.3-8.2-0.2-16.4-0.2-24.6c0-7.8,0-15.6,0-24c-30.6,0-60.6,0-91.8,0c-0.4,37-0.1,73.9-0.1,110.9
	c0,37.1,0,74.1,0,112c-7,0-13.4,0-20.9,0c-0.4-7-0.8-14-1.3-21.9c-9.6,0-18.9,0-29,0c-1.7-16.8,0-32.8-1.1-49.2
	c-3-0.5-5.8-1-8.8-1.5c-0.3-3.6-0.5-6.8-0.8-10.4c-3.2-0.3-6-0.6-9.9-1c-0.1-22.1-0.3-43.8-0.4-66.2c-11.9,0-22.6,0-33.6,0
	l-1.7-23.3c-4.6-0.3-9-0.7-13.9-1c-0.4-3.8-0.8-7.3-1.3-11.5c-3.6,0-6.9,0-10.9,0c-0.4,3.5-0.8,7-1.3,11.5c-8.3,0-16.6,0-25.1,0
	l-1.8,24c-17.4,0-34.9,0-53.3,0c0,38,0,74.9,0,112.3c-9.8,1.2-18.8,1.5-28.7,0.2c-0.2-4.1-0.5-8-0.6-11.8
	c-2.4-74.1-2.3-148.3-2.1-222.4c0-2.3,0-4.6,0-7.9c-14.3-2.9-28.6-5.7-43.2-8.6c0-5.1,0-9.6,0-14.6c2.1-2.4,4.4-5.1,6.1-7.1
	c5-0.3,8.6-0.5,12.8-0.8c0.5-2.5,0.9-5,1.5-8.1c2-0.6,4.3-1.4,6.8-2.2c0.3-3.8,0.5-7.4,0.8-11.4c2.6-1.7,5.3-3.4,8.3-5.3
	c0-2.6,0-5.1,0-7.8c-9.8-7.2-21.4-7.9-33.5-9.9c0-4.8,0-9.5,0-15.1c-8.5,0-16.3,0-24.7,0c0.5-8.5-3.7-16,1.2-23.4
	c-5.4-6.9-4.4-14.3-2-21.3c-1.4-4.6-3-12.2-0.7-16.9l-3.6-13.9c0,0-1.5,8.5-2.5,14.4c2.5,4.2,1.8,9.9-1.9,15.4
	c2.7,7.2,2.9,14.4-0.5,22c3.6,6.8,1,14.4,1.1,23.1c-6.8,0.4-13.2,0.7-20.2,1.1c-0.3,4.8-0.6,9.3-0.9,14.3
	c-11.1,2.2-22.7,2.6-32.8,9.6c0,2.7,0,5.6,0,8.6c2.5,1.6,5,3.1,7.6,4.7c0,3.9,0,7.4,0,11.4c2.4,0.7,4.5,1.4,7.2,2.2
	c0.5,2.4,1.1,5.1,1.7,8.3c4.1,0.2,7.9,0.4,12,0.6c2.4,2.2,4.8,4.3,7.6,6.8c0,4.6,0,9.4,0,15c-15.9,0.8-31.5,1.5-47.9,2.3
	c0,84.7,0,168.8,0,254.3c-7.7-1.7-14.2-3.1-21-4.6c-1.4-4.5-2.8-8.9-4.3-13.6c-9.1-1.7-18.2,0.5-28.2,0.4c-3-23.5-4.4-47.3-6.6-70.9
	c-2.6-2.2-5.1-4.4-8.5-7.3c-0.9-0.1-15-0.1-17.7,0.1c-0.8-2.6-1.4-4.7-2.2-7.1c-11.5,0-22.9,0-34.6,0c-0.7,4.3-1.4,8.2-2,12.1
	c-0.7,0.1-1.3,0.1-2,0.2c-1.1-2.7-2.2-5.5-3.5-9c-6.5,0-13.3,0-20.7,0c-1-15.6-1.9-30.5-2.8-45.5c-0.4,0-0.8,0-1.1,0
	c-1,14.6-2,29.2-3.1,44.6c-2.4,0.3-4.8,0.6-8.3,1.1c-0.8-16.6-2.2-49.1-2.2-49.1l-4.6,0.1l-4.8,59.2c0,0-0.7,5.1-0.8,7.7
	c-0.1,12.1,0,24.2,0,37.1c-4.6,0.4-8.7,0.8-13.7,1.3c-0.3,6.4-0.6,12.8-0.9,19.7c-9.1,0-17.8,0-27,0c-0.3-2.4-0.8-4.6-0.9-6.8
	c-0.1-2.9,0-5.9,0-8.9c0-68.2,0.1-136.5-0.1-204.7c0-23.5-0.6-47-0.9-71c-13.1-2.8-26.3,0.8-40.3-1.7c-0.3-5.1-0.6-10.1-1-16.3
	c-7.8-5.1-9.6-24.2-9.6-24.2s-0.9,16.3-6.1,22.8c-6.5,0-12.9,0-19.9,0c-0.3,4.6-0.5,9.1-0.8,14c-4.4,0-8.1,0-12.9,0
	c-0.3-9.5,0.1-58.4,0.1-58.4s-1.4,0.2-2.8,0.3c0,19.4,0,38.3,0,58.1c-10.6,0-32,0-32,0l-1.1,8.3c0,67.9,0,135.9,0,203.8
	c0,13,0,26.1,0,39.7c-6,0-16.5,0-16.5,0s-1.4-6.8-1.4-10.2c-0.1-66.6-0.1-133.2-0.2-199.8c0-3.5,0-7,0-11.4c-11.4,0-21.8,0-33.1,0
	c0-7.6,0-14.3,0-22c-11.2,0-21.6,0-32.5,0c-0.4-6.1-0.7-11.2-1-16.8c-7,0-13.7,0-21.2,0c-0.3,6.6-0.6,13-1,20.3
	c-17.5,0-34.5,0-52.6,0c-0.5,16.2-0.2,31.5-0.1,46.8c0.1,15,0,30.1,0,45.7c-8,0-15.1,0-22.7,0c-2.2-5.9-0.8-12.5-1.1-18.9
	c-0.3-6.2-0.1-12.4-0.1-19.2c-1.8-0.3-3.3-0.6-5.8-1c0,13.2,0,25.9,0,39.3c-15.2,0-29.5,0-43.5,0c-6.1,5.6-11.7,10.6-18,16.4
	c0,15.1,0,30.7,0,47c-5.3,0-9.7,0-15.3,0c0-39.9,0-79.4,0-119.7c-13.9-1.6-27-0.1-40.9-1.1c0-6.5,0-12.9,0-20.3
	c-8.5-0.1-15.9-0.2-23.3-0.2c-7.5,0-15,0-22.9,0c-2.8,7.3-0.3,14.6-2,22.5c-12.2,0-24.5,0-37.8,0c-1.6,26.7,0,52.4-0.3,78.2
	c-0.3,25.9-0.1,51.9-0.1,77.8c0,25.9,0,51.8,0,78.5c-4.7,0-8.7,0-14.1,0c-0.3-15.8,0.1-31.7-0.3-48.5c-5.2-0.4-9.9-0.7-15.7-1.1
	c-0.9-23.9,0.2-47.7-0.6-72.2c-6,0-11.1,0-17,0c-3-12.4,0.6-24.6-1.7-37.4c-11.3-0.3-22.6-0.5-34.5-0.8
	c-2.4-20.8-13.8-33.2-33.5-38.2c-2.1-3.4,0.4-9.1-5.1-10.5c-5.1,1.8-3.1,6.9-5.1,10.3c-21.3,3.6-33.1,16.8-36,38.1
	c-4.6,0.4-8.5,0.7-13.4,1.2c-0.2,8.3-0.4,16.3-0.6,25.2c-7.2,0-13.6,0-21.1,0c0,42.7,0,84.6,0,127.6c-9.2,0.3-17.5,0.6-26.9,0.9
	c0,11.1,0,21.8,0,33c-6.8,0-12.5,0-19.2,0c0-56.7,0-113,0-170c-10.6,0-20.3,0-30.7,0c0-9.4,0-18.1,0-27.5c-9.4,0-18.1,0-27.9,0
	c-0.7-18.8,0.4-37-0.5-55.9c-2.1,0.2-3.5,0.3-5.3,0.4c0,18.2,0,35.8,0,54.6c-11.8,0.8-23.7-0.1-36.5,0.5c0,9.3,0,18,0,27.7
	c-8.5,0-16.2,0-24.9,0c0,64.5,0,128,0,192.9c-3.4-1.9-5.5-3-7.4-4c0-24.5,0-48.3,0-72.1c-7.3-2.1-70.1-2.9-88.9-1.1
	c-2.3,7.8-0.8,16-1,24c-0.3,8.5-0.1,17.1-0.1,25.6c0,8.1,0,16.3,0,26.1c-7.8-3.5-14.2-6.3-21.1-9.4c-11.8,4.3-23.7,8.6-36.2,13.1
	c-7.7-5-15.3-10-23.8-15.5c-9.2,5.4-18.5,10.7-27.7,16.2c-4.1,2.4-8.2,4.3-13.5,0.5c0-14.8,0.1-30.2,0-45.6
	c-0.1-15.3,0.3-30.7-0.3-47.1c-19.5,0-37.8,0-56.1,0c0,64.3,0,193,0,193"/>
</svg>
